<svg xmlns="http://www.w3.org/2000/svg" viewBox="0 0 500 500"><g id="freepik--Table--inject-10"><line x1="483.09" y1="465.25" x2="26.55" y2="465.25" style="fill:none;stroke:#263238;stroke-linecap:round;stroke-linejoin:round"></line><line x1="483.09" y1="474.81" x2="26.55" y2="474.81" style="fill:none;stroke:#263238;stroke-linecap:round;stroke-linejoin:round"></line></g><g id="freepik--character-2--inject-10"><path d="M458.08,359.8h-96.8a6.35,6.35,0,0,0-6.29,5.44l-14.48,99H455.62l8.79-97.54A6.35,6.35,0,0,0,458.08,359.8Z" style="fill:#263238;stroke:#263238;stroke-linecap:round;stroke-linejoin:round"></path><path d="M327,343.64s-26.19,13-35.18,16.59-11.2,5.2-12,7.4-35.78,57.17-39.77,62.17-12.6,15.79-11.4,23.18,10.8,13.8,20,13.6,15-2,16-4.6,26.39-48,26.39-48l8,50.57H401.19s8-69.16,8-79.36,2-22.19-2.2-24.79-21.59-8.59-34.39-12.79-16.79-5-19.78-5S327,343.64,327,343.64Z" style="fill:#fff;stroke:#263238;stroke-linecap:round;stroke-linejoin:round"></path><path d="M324.23,344s-3.4,6.4-3.6,11.6-1,14.79-4,20.59-5.2,9-3.6,8.39,10.79-10.79,11.79-13,2.6,2,2.6,2-3,8.59-3.4,9.79,12.59,17.79,12.59,17.79,11.2-8.79,13.8-10.79,1.8-3.6,2-6.2,1-6.39,2.39-8.59S360.21,382,363,386s5.6,5.4,5.2,2.4-1.8-8.8-2.8-19-.8-22.39-3.4-26.19-16.24-4.55-25.19-5.19A13.22,13.22,0,0,0,324.23,344Z" style="fill:#fff;stroke:#263238;stroke-linecap:round;stroke-linejoin:round"></path><polyline points="283.85 378.05 291.05 414.01 281.75 390.1" style="fill:none;stroke:#263238;stroke-linecap:round;stroke-linejoin:round"></polyline><path d="M325.23,353.64s2.8,15.59,5.4,27.58a123,123,0,0,0,6,20s13.2-22.19,17-33.78a133.83,133.83,0,0,0,5-19.59H325.23Z" style="fill:none;stroke:#263238;stroke-linecap:round;stroke-linejoin:round"></path><path d="M339.82,359l-7.19,9,5,9.6-4.92,11.91a108.59,108.59,0,0,0,3.92,11.67s4.12-6.92,8.41-15l-3.61-8.33,4.4-10Z" style="fill:#155B2A;stroke:#263238;stroke-linecap:round;stroke-linejoin:round"></path><path d="M325.23,347.84v5.8s1.93,10.76,4.07,21.27l10.12-10.68,10.67,11.82a84.2,84.2,0,0,0,3.53-8.62,133.83,133.83,0,0,0,5-19.59Z" style="fill:#fff;stroke:#263238;stroke-linecap:round;stroke-linejoin:round"></path><path d="M238.08,435.72s18.67-6.82,28.74,9.77" style="fill:none;stroke:#263238;stroke-linecap:round;stroke-linejoin:round"></path><path d="M267.15,440.37s-10.43,2.36-16,11.25,5.76,9.88,8.89,9.88,6.09-2.1,6.26-3.19,4.27-11.63,4.11-14.09A4,4,0,0,0,267.15,440.37Z" style="fill:#fff;stroke:#263238;stroke-linecap:round;stroke-linejoin:round"></path><path d="M262.35,444.05s-5.77,5-5.38,7,8.95,9.7,10.6,8.59a2.54,2.54,0,0,0,1.11-3.42C268.21,455.47,262.35,444.05,262.35,444.05Z" style="fill:#fff;stroke:#263238;stroke-linecap:round;stroke-linejoin:round"></path><path d="M257,451s-3.39,3.61-2.28,5.26,8.86,5.86,10.87,4.59.71-2.57.71-2.57Z" style="fill:#fff;stroke:#263238;stroke-linecap:round;stroke-linejoin:round"></path><polygon points="276.86 443.86 269.92 442.66 271.55 452.65 278.64 452.87 276.86 443.86" style="fill:#fff;stroke:#263238;stroke-linecap:round;stroke-linejoin:round"></polygon><path d="M264.37,428.15l8.13,28.49,3.95,3.59v-5.07l-8.6-28a1.8,1.8,0,0,0-2.32-1.18h0A1.81,1.81,0,0,0,264.37,428.15Z" style="fill:#263238;stroke:#263238;stroke-linecap:round;stroke-linejoin:round"></path><path d="M267.15,440.37s-4.8,2.81-4.32,4.94,5.66,12.09,7.53,12.22,3-1,2.73-3.16-2-10-3.17-11.71S268.62,440.27,267.15,440.37Z" style="fill:#fff;stroke:#263238;stroke-linecap:round;stroke-linejoin:round"></path><path d="M276.86,443.86s5.11.64,6,2.2-2.68,7.78-3.82,9.2-3.18,1.36-3.24-2.24A54.93,54.93,0,0,1,276.86,443.86Z" style="fill:#fff;stroke:#263238;stroke-linecap:round;stroke-linejoin:round"></path><path d="M249.22,455.89h56.07a5.92,5.92,0,0,1,5.91,5.91h0a5,5,0,0,1-5,5H250a4.6,4.6,0,0,1-4.6-4.6V459.7A3.81,3.81,0,0,1,249.22,455.89Z" style="fill:#fff;stroke:#263238;stroke-linecap:round;stroke-linejoin:round"></path><path d="M349,443s-14.59-1.6-18.19-2.8-9.4-2.2-11.4-.6-11.79,13-12,14.39-2.2,6-1.2,7.2a7.25,7.25,0,0,0,3,1.8s13,3.6,14.39,3.8,14.79-.4,14.79-.4l7-2.6,9.79-.2s.2,3.2.4-4.6S349,443,349,443Z" style="fill:#fff;stroke:#263238;stroke-linecap:round;stroke-linejoin:round"></path><path d="M309.24,463s.2-4.6,1.2-6.6,12.39-12.19,12.39-12.19" style="fill:none;stroke:#263238;stroke-linecap:round;stroke-linejoin:round"></path><path d="M313,464.18s2-5,2.8-5.4,10.19-6.4,10.19-6.4" style="fill:none;stroke:#263238;stroke-linecap:round;stroke-linejoin:round"></path><path d="M319.83,465.58s.4-2,1.4-2.4,9.4-4.2,9.4-4.2" style="fill:none;stroke:#263238;stroke-linecap:round;stroke-linejoin:round"></path><polyline points="328.83 466.58 332.63 465.58 332.23 463.78 328.23 464.78" style="fill:none;stroke:#263238;stroke-linecap:round;stroke-linejoin:round"></polyline><path d="M394.79,378.62s-10.59,22.19-10,30S388,429.4,388,429.4s-16.79,6.59-22.59,9S349,443,349,443l5.39,21.19-.79,2.2h58.16s4.4-.8,5.2-1.8,1.6-1.4,2-4.6,3-31.18,2.4-39-8.8-48.37-9.8-52.57-2.79-7-4.59-8-9.6-1.79-9.6-1.79" style="fill:#fff;stroke:#263238;stroke-linecap:round;stroke-linejoin:round"></path><path d="M389.4,429.8s15.39.8,23,5.59" style="fill:none;stroke:#263238;stroke-linecap:round;stroke-linejoin:round"></path><path d="M392.19,427.8s10.8-.6,16.6,1.2" style="fill:none;stroke:#263238;stroke-linecap:round;stroke-linejoin:round"></path><path d="M389.2,378s-5.4,12.6-5.6,17.4S383,403,383,403" style="fill:none;stroke:#263238;stroke-linecap:round;stroke-linejoin:round"></path><path d="M364.61,344.64S376.8,362,367,410.41" style="fill:none;stroke:#263238;stroke-linecap:round;stroke-linejoin:round;stroke-width:2px"></path><path d="M372.8,411.81a6,6,0,1,0-6,6A6,6,0,0,0,372.8,411.81Z" style="fill:#fff;stroke:#263238;stroke-linecap:round;stroke-linejoin:round"></path><path d="M323,346.44s-6.19,4-7.19,20.19" style="fill:none;stroke:#263238;stroke-linecap:round;stroke-linejoin:round;stroke-width:2px"></path><path d="M324.41,391.16c-1.51,10.92-3.57,22.65-4,25.22-1,5.5-7.53,7.42-11.73,5.62" style="fill:none;stroke:#263238;stroke-linecap:round;stroke-linejoin:round;stroke-width:2px"></path><path d="M308.75,391.88c-1.37-6.12-2.21-11.43-1.91-13.86,1.4-11.19,9-11.39,9-11.39s9,1.2,9.59,10.8a79.93,79.93,0,0,1-1,13.73" style="fill:none;stroke:#263238;stroke-linecap:round;stroke-linejoin:round;stroke-width:2px"></path><path d="M325.63,421.2s-4.2,2.4-7,.8c-1.89-1.08-7-17.36-9.88-30.12" style="fill:none;stroke:#263238;stroke-linecap:round;stroke-linejoin:round;stroke-width:2px"></path><rect x="324.44" y="419.24" width="4.94" height="3.19" rx="1.57" transform="translate(-139.9 163.81) rotate(-23.32)" style="fill:none;stroke:#263238;stroke-linecap:round;stroke-linejoin:round"></rect><rect x="305.1" y="419.43" width="4.94" height="3.19" rx="1.57" transform="translate(260.72 -98.27) rotate(30.99)" style="fill:none;stroke:#263238;stroke-linecap:round;stroke-linejoin:round"></rect><path d="M315.84,298.07s-3.2,7.59-2.6,12.39,7,10,7,10,2.2-21.39,2.2-22.19S318.43,295.67,315.84,298.07Z" style="fill:#263238;stroke:#263238;stroke-linecap:round;stroke-linejoin:round"></path><line x1="313.54" y1="325.26" x2="317.79" y2="322.29" style="fill:none;stroke:#263238;stroke-linecap:round;stroke-linejoin:round;stroke-width:2px"></line><path d="M318.23,299.47s-.8,21.19-.4,25.18,2,16.79,3.4,20.79,6,16.79,9.6,18.19,10.79,2.4,13.19.8,11.19-7.59,13.59-13.39a39.31,39.31,0,0,0,2.8-10.59,14.73,14.73,0,0,0,7.6-10.6c1.2-7.6-2-9.79-2-9.79l.2-13.2s-2.2-9.19-8-14.19-12.59-5.4-19.59-1.6S318.23,299.47,318.23,299.47Z" style="fill:#fff;stroke:#263238;stroke-linecap:round;stroke-linejoin:round"></path><path d="M355.81,298.27s.2-5.2-4.79-3.4-6.2,5.2-13.6,8.2-17.19-.4-20.58-2.4-5.8-4.8-1.2-10,15.39-10.39,27-10.39,20.59,9.59,24.39,13.59,4.4,9,3,12.59-4,13.6-4,13.6-1.6-.2-2.2,2.19-.4,5-3,5.2-2.4-6.79-2.4-6.79-6.39-2-7.19-6.6S355.81,302.67,355.81,298.27Z" style="fill:#263238;stroke:#263238;stroke-linecap:round;stroke-linejoin:round"></path><path d="M332,328.52l-18.49-3.26,1.07,8.29a2.42,2.42,0,0,0,2,2.08l11.24,1.77a2.41,2.41,0,0,0,2.75-1.92Z" style="fill:none;stroke:#263238;stroke-linecap:round;stroke-linejoin:round;stroke-width:2px"></path><path d="M335.37,328.87l21.44-.62-2.1,7.76a2.56,2.56,0,0,1-2.54,1.72l-13,.18a2.81,2.81,0,0,1-2.94-2.21Z" style="fill:none;stroke:#263238;stroke-linecap:round;stroke-linejoin:round;stroke-width:2px"></path><line x1="332.03" y1="328.52" x2="335.37" y2="328.87" style="fill:none;stroke:#263238;stroke-linecap:round;stroke-linejoin:round;stroke-width:2px"></line><line x1="356.81" y1="328.25" x2="363.81" y2="322.25" style="fill:#fff;stroke:#263238;stroke-linecap:round;stroke-linejoin:round;stroke-width:2px"></line><path d="M338.22,326.45s6-4.59,11.6-1.8" style="fill:none;stroke:#263238;stroke-linecap:round;stroke-linejoin:round;stroke-width:2px"></path><path d="M329.23,325.45s-4.6-5-9.8-1.6" style="fill:none;stroke:#263238;stroke-linecap:round;stroke-linejoin:round;stroke-width:2px"></path><path d="M330.43,342.84s-1,4.2,0,5a8.83,8.83,0,0,0,5.59,1" style="fill:none;stroke:#263238;stroke-linecap:round;stroke-linejoin:round"></path><path d="M327.43,351s4,3,7.8,3.2,8.19-2.6,8.19-2.6" style="fill:none;stroke:#263238;stroke-linecap:round;stroke-linejoin:round"></path><path d="M342.22,330.65s2.4,2.8,6.4-.2" style="fill:none;stroke:#263238;stroke-linecap:round;stroke-linejoin:round"></path><path d="M322.53,329.42s2,3.1,6.36.67" style="fill:none;stroke:#263238;stroke-linecap:round;stroke-linejoin:round"></path></g><g id="freepik--character-1--inject-10"><path d="M198.5,298.25s1.27,19.05.31,20.64L196,323.65s1.27,13.66-1.27,15.24a16.73,16.73,0,0,1-6.35,1.91s-2.54,10.16-3.5,11.43-6.67,5.4-8.57,6-7.94,1-22.23-7.62-19.69-11.43-19.37-16.19,1-10.16,1-10.16,1.59-22.87,4.45-29.85,39.06-10.8,47-8.89S198.5,298.25,198.5,298.25Z" style="fill:#fff;stroke:#263238;stroke-linecap:round;stroke-linejoin:round"></path><path d="M161.66,329.68l2.23,1.59s-1.91,7.62-1,11.12" style="fill:none;stroke:#263238;stroke-linecap:round;stroke-linejoin:round"></path><path d="M193.41,323.3c-.32,1.46-1.09,2.52-1.71,2.38s-.87-1.42-.54-2.88,1.09-2.52,1.71-2.38S193.74,321.85,193.41,323.3Z" style="fill:#263238"></path><path d="M190.17,317.47s3.46-3.46,6.35-.19" style="fill:none;stroke:#263238;stroke-linecap:round;stroke-linejoin:round"></path><path d="M185.8,295.71s4.12,7.62,3.81,9.21-13.34,5.4-13.34,5.4-1.27,7.62-3.18,8.57l-1.9.95a33.26,33.26,0,0,1-3.81-6.67c-2.22-4.76-5.4-6-8.89-1.27s-.64,15.88,1.27,16.83l1.9.95s-1.59,1.59-7.62,2.55-10.48,2.22-14.92.95-10.8-13.34-13-28.9,4.76-28.89,14-33,30.17-.32,31.75.63,12.39-4.12,18.74-.95,6,6.67,7.62,8.89,9.84-.63,10.48,7.31-2.54,12.7-6.67,13.33S185.8,295.71,185.8,295.71Z" style="fill:#263238;stroke:#263238;stroke-linecap:round;stroke-linejoin:round"></path><path d="M110.61,345.56S80.18,361.79,74.38,365s-6.67,6.09-7,9,0,100.85,0,100.85H231.75S206.82,400,206,391.64s-2.6-23.19-4.92-24.93S166,350.48,166,350.48s-7.83-8.4-26.37-8.4S110.61,345.56,110.61,345.56Z" style="fill:#155B2A;stroke:#263238;stroke-linecap:round;stroke-linejoin:round"></path><path d="M129.45,405.19c.86.34,1.73.65,2.6.94" style="fill:none;stroke:#263238;stroke-linecap:round;stroke-linejoin:round"></path><path d="M97,378.31s12,16.74,28.39,25" style="fill:none;stroke:#263238;stroke-linecap:round;stroke-linejoin:round"></path><path d="M107.42,397.72s6.66,6.67,20.57,10.44" style="fill:none;stroke:#263238;stroke-linecap:round;stroke-linejoin:round"></path><path d="M190,373.7c-4.63,5.26-11.15,13.67-13.31,21.41" style="fill:none;stroke:#263238;stroke-linecap:round;stroke-linejoin:round"></path><path d="M194.94,368.45s-.92.89-2.36,2.42" style="fill:none;stroke:#263238;stroke-linecap:round;stroke-linejoin:round"></path><path d="M178.42,385.84s-4.35,8.4-5.21,13.62" style="fill:none;stroke:#263238;stroke-linecap:round;stroke-linejoin:round"></path><path d="M108.87,347s16.81-.58,32.75-.29S168,351.93,168,351.93s-9.57-11.59-13.91-14.2-17.68-7-28.69-3.48A31.94,31.94,0,0,0,108.87,347Z" style="fill:#155B2A;stroke:#263238;stroke-linecap:round;stroke-linejoin:round"></path><path d="M61.07,474.74,45.75,416a4.9,4.9,0,0,1,4.8-5.9H172.44a4.92,4.92,0,0,1,4.8,3.86l13.53,60.84" style="fill:#263238;stroke:#263238;stroke-linecap:round;stroke-linejoin:round"></path></g></svg>